# Blender v2.76 (sub 0) OBJ File: ''
# www.blender.org
mtllib lowpolytree.mtl
o Cylinder.001_Cylinder.002
v 0.016341 0.009627 -0.335875
v 0.016341 1.601277 -0.308387
v 0.247910 0.009627 -0.239956
v 0.228473 1.601277 -0.220519
v 0.343829 0.009627 -0.008387
v 0.316341 1.601277 -0.008387
v 0.247910 0.009627 0.223182
v 0.228473 1.601277 0.203745
v 0.016341 0.009627 0.319101
v 0.016341 1.601277 0.291613
v -0.215228 0.009627 0.223182
v -0.195791 1.601277 0.203745
v -0.311147 0.009627 -0.008387
v -0.283659 1.601277 -0.008387
v -0.215228 0.009627 -0.239956
v -0.195791 1.601277 -0.220519
v 0.016341 0.805452 -0.254227
v 0.190176 0.805452 -0.182222
v 0.262181 0.805452 -0.008387
v 0.190176 0.805452 0.165448
v 0.016341 0.805452 0.237453
v -0.157494 0.805452 0.165448
v -0.229499 0.805452 -0.008387
v -0.157494 0.805452 -0.182222
vn 0.381900 -0.062800 -0.922100
vn 0.922100 -0.062800 -0.381900
vn 0.922100 -0.062800 0.381900
vn 0.381900 -0.062800 0.922100
vn -0.381900 -0.062800 0.922100
vn -0.922100 -0.062800 0.381900
vn -0.000000 1.000000 0.000000
vn -0.922100 -0.062800 -0.381900
vn -0.381900 -0.062800 -0.922100
vn -0.000000 -1.000000 0.000000
vn -0.381000 0.094400 -0.919800
vn -0.919800 0.094400 -0.381000
vn -0.919800 0.094400 0.381000
vn -0.381000 0.094400 0.919800
vn 0.381000 0.094400 0.919800
vn 0.919800 0.094400 0.381000
vn 0.919800 0.094400 -0.381000
vn 0.381000 0.094400 -0.919800
usemtl mat1
s 1
f 17//1 2//1 4//1
f 18//2 4//2 6//2
f 19//3 6//3 8//3
f 8//4 10//4 21//4
f 10//5 12//5 22//5
f 12//6 14//6 23//6
f 14//7 10//7 2//7
f 14//8 16//8 24//8
f 16//9 2//9 17//9
f 7//10 13//10 15//10
f 24//11 17//11 1//11
f 23//12 24//12 15//12
f 22//13 23//13 13//13
f 21//14 22//14 11//14
f 20//15 21//15 9//15
f 19//16 20//16 7//16
f 18//17 19//17 5//17
f 17//18 18//18 3//18
f 18//1 17//1 4//1
f 19//2 18//2 6//2
f 20//3 19//3 8//3
f 20//4 8//4 21//4
f 21//5 10//5 22//5
f 22//6 12//6 23//6
f 6//7 4//7 2//7
f 2//7 16//7 14//7
f 14//7 12//7 10//7
f 10//7 8//7 6//7
f 6//7 2//7 10//7
f 23//8 14//8 24//8
f 24//9 16//9 17//9
f 15//10 1//10 3//10
f 3//10 5//10 7//10
f 7//10 9//10 11//10
f 11//10 13//10 7//10
f 15//10 3//10 7//10
f 15//11 24//11 1//11
f 13//12 23//12 15//12
f 11//13 22//13 13//13
f 9//14 21//14 11//14
f 7//15 20//15 9//15
f 5//16 19//16 7//16
f 3//17 18//17 5//17
f 1//18 17//18 3//18
o Cylinder_Cylinder.001
v 0.016250 1.136262 -1.025474
v 0.016472 7.553496 -0.111359
v 0.723448 1.352902 -0.715494
v 0.089612 7.553496 -0.081063
v 1.048812 1.136262 0.007087
v 0.123208 7.471259 0.003826
v 0.723448 1.352903 0.698720
v 0.089612 7.553496 0.065218
v 0.016250 1.136262 1.039649
v 0.016472 7.553496 0.095514
v -0.690766 1.352903 0.698720
v -0.056669 7.553496 0.065218
v -1.016311 1.136262 0.007087
v -0.086965 7.553496 -0.007922
v -0.690766 1.352902 -0.715494
v -0.056669 7.553496 -0.081063
v 0.016250 2.170238 -0.876827
v 0.016250 3.204213 -0.728180
v 0.016250 4.238189 -0.579534
v 0.016250 5.272164 -0.430887
v 0.016250 6.306140 -0.282240
v 0.214474 6.522780 -0.206521
v 0.316269 5.488805 -0.308316
v 0.418064 4.454829 -0.410110
v 0.519858 3.420854 -0.511905
v 0.621653 2.386878 -0.613699
v 0.305577 6.306140 0.007087
v 0.454224 5.272164 0.007087
v 0.602871 4.238189 0.007087
v 0.751518 3.204213 0.007087
v 0.900165 2.170238 0.007087
v 0.214474 6.522780 0.189746
v 0.316269 5.488805 0.291541
v 0.418064 4.454829 0.393335
v 0.519858 3.420854 0.495130
v 0.621653 2.386878 0.596925
v 0.016250 6.306140 0.296413
v 0.016250 5.272164 0.445060
v 0.016250 4.238189 0.593707
v 0.016250 3.204213 0.742355
v 0.016250 2.170238 0.891002
v -0.181793 6.522780 0.189746
v -0.283587 5.488805 0.291541
v -0.385382 4.454829 0.393335
v -0.487177 3.420854 0.495130
v -0.588971 2.386878 0.596925
v -0.273076 6.306140 0.007087
v -0.421723 5.272164 0.007087
v -0.570370 4.238189 0.007087
v -0.719017 3.204213 0.007087
v -0.867664 2.170238 0.007087
v -0.181793 6.522780 -0.206521
v -0.283587 5.488805 -0.308316
v -0.385382 4.454829 -0.410110
v -0.487177 3.420854 -0.511905
v -0.588971 2.386878 -0.613699
v 0.016250 6.306140 -0.440036
v 0.322534 6.522780 -0.314581
v 0.463373 6.306140 0.007087
v 0.322534 6.522780 0.297805
v 0.016250 6.306140 0.454209
v -0.289852 6.522780 0.297805
v -0.430872 6.306140 0.007087
v -0.289852 6.522780 -0.314581
v 0.016250 5.272164 -0.751917
v 0.536113 5.488805 -0.528160
v 0.775254 5.272164 0.007087
v 0.536113 5.488805 0.511385
v 0.016250 5.272164 0.766091
v -0.503431 5.488805 0.511385
v -0.742753 5.272164 0.007087
v -0.503431 5.488805 -0.528160
v 0.016250 4.238189 -1.013611
v 0.715324 4.454829 -0.707370
v 1.036948 4.238189 0.007087
v 0.715324 4.454829 0.690595
v 0.016250 4.238189 1.027785
v -0.682642 4.454829 0.690595
v -1.004448 4.238189 0.007087
v -0.682642 4.454829 -0.707370
v 0.016250 3.204213 -1.282939
v 0.899762 3.420854 -0.891808
v 1.306277 3.204213 0.007087
v 0.899762 3.420854 0.875034
v 0.016250 3.204214 1.297113
v -0.867080 3.420854 0.875034
v -1.273776 3.204213 0.007087
v -0.867080 3.420854 -0.891808
v 0.016250 2.170238 -1.555796
v 1.086617 2.386878 -1.078663
v 1.579133 2.170238 0.007087
v 1.086617 2.386878 1.061888
v 0.016250 2.170238 1.569970
v -1.053935 2.386878 1.061888
v -1.546632 2.170238 0.007087
v -1.053935 2.386878 -1.078663
v 1.277705 1.352902 -1.269751
v 1.858173 1.136262 0.007088
v 1.277705 1.352903 1.252977
v 0.016250 1.136263 1.849010
v -1.245023 1.352903 1.252977
v -1.755423 1.136262 0.007087
v -1.245023 1.352902 -1.269751
v 0.016250 1.136262 -1.834835
vn 0.340600 0.278200 -0.898100
vn 0.367000 0.283600 -0.885900
vn 0.216700 0.250400 -0.943600
vn 0.936600 0.271200 -0.221600
vn 0.958700 0.248100 -0.139000
vn 0.956000 0.251600 -0.151100
vn 0.948200 0.257100 0.186700
vn 0.950300 0.255000 0.178400
vn 0.930700 0.271500 0.245000
vn 0.286300 0.265700 0.920600
vn 0.367100 0.282900 0.886100
vn 0.352500 0.279900 0.893000
vn -0.352500 0.280000 0.892900
vn -0.367000 0.283000 0.886100
vn -0.286300 0.265800 0.920500
vn -0.929300 0.260600 0.261800
vn -0.886000 0.283300 0.367000
vn -0.894500 0.279600 0.348900
vn 0.000000 1.000000 0.000000
vn 0.313100 0.949700 0.000000
vn -0.896500 0.278900 -0.344300
vn -0.886000 0.283600 -0.367000
vn -0.935400 0.256500 -0.243400
vn -0.216800 0.250500 -0.943500
vn -0.367000 0.283700 -0.885900
vn -0.340600 0.278300 -0.898100
vn -0.115500 -0.986900 -0.112700
vn 0.115400 -0.986900 -0.112700
vn 0.113600 -0.986700 0.116300
vn -0.184500 0.642300 -0.743900
vn -0.134700 0.590400 -0.795800
vn -0.169100 0.626700 -0.760700
vn -0.192000 0.588300 -0.785500
vn -0.131200 0.530900 -0.837200
vn -0.168000 0.566100 -0.807100
vn -0.196900 0.528300 -0.825900
vn -0.119600 0.464500 -0.877500
vn -0.158500 0.497200 -0.853000
vn -0.197500 0.461400 -0.864900
vn -0.093100 0.389600 -0.916300
vn -0.133800 0.418300 -0.898400
vn -0.188100 0.390700 -0.901100
vn -0.029900 0.305400 -0.951800
vn -0.072600 0.329400 -0.941400
vn -0.769400 0.616500 -0.167200
vn -0.790300 0.594800 -0.147200
vn -0.760500 0.625100 -0.175400
vn -0.802200 0.569000 -0.180900
vn -0.831100 0.536300 -0.147400
vn -0.783100 0.588300 -0.201300
vn -0.847000 0.501400 -0.176300
vn -0.870600 0.471400 -0.141200
vn -0.823000 0.528300 -0.208700
vn -0.891100 0.424600 -0.160300
vn -0.908700 0.398600 -0.124200
vn -0.861400 0.461100 -0.212900
vn -0.933100 0.339800 -0.117400
vn -0.944400 0.318800 -0.080300
vn -0.896600 0.390000 -0.209700
vn -0.758800 0.625800 0.180700
vn -0.787700 0.596800 0.153000
vn -0.768100 0.616800 0.172000
vn -0.780700 0.589100 0.208600
vn -0.828300 0.538600 0.154400
vn -0.800800 0.569100 0.186700
vn -0.820200 0.529000 0.217800
vn -0.867700 0.474000 0.149700
vn -0.845500 0.501600 0.183300
vn -0.858100 0.461800 0.224600
vn -0.906000 0.401500 0.134200
vn -0.889400 0.424900 0.168600
vn -0.892600 0.390500 0.225200
vn -0.942700 0.321300 0.090100
vn -0.932100 0.340000 0.125300
vn -0.193000 0.630800 0.751600
vn -0.164900 0.600900 0.782100
vn -0.205200 0.643300 0.737600
vn -0.199000 0.571700 0.795900
vn -0.169700 0.543600 0.822000
vn -0.217500 0.589100 0.778200
vn -0.200300 0.505400 0.839300
vn -0.170300 0.480200 0.860500
vn -0.229000 0.528800 0.817200
vn -0.193700 0.430400 0.881600
vn -0.163600 0.409500 0.897500
vn -0.239300 0.461300 0.854300
vn -0.167800 0.349100 0.921900
vn -0.138000 0.333100 0.932700
vn -0.245600 0.389600 0.887600
vn 0.205100 0.643300 0.737700
vn 0.164900 0.600900 0.782100
vn 0.193000 0.630800 0.751600
vn 0.217500 0.589100 0.778200
vn 0.169700 0.543600 0.822000
vn 0.199000 0.571700 0.796000
vn 0.229000 0.528800 0.817300
vn 0.170200 0.480200 0.860500
vn 0.200200 0.505400 0.839400
vn 0.239300 0.461300 0.854400
vn 0.163600 0.409500 0.897500
vn 0.193600 0.430400 0.881600
vn 0.245500 0.389600 0.887700
vn 0.137900 0.333100 0.932800
vn 0.167700 0.349100 0.921900
vn 0.755600 0.628800 0.183500
vn 0.787700 0.596800 0.152800
vn 0.739700 0.643200 0.197800
vn 0.800900 0.569000 0.186500
vn 0.828400 0.538600 0.154100
vn 0.780700 0.589100 0.208400
vn 0.845500 0.501500 0.183100
vn 0.867800 0.473900 0.149400
vn 0.820200 0.529000 0.217600
vn 0.889500 0.424800 0.168200
vn 0.906100 0.401300 0.133800
vn 0.858100 0.461800 0.224400
vn 0.932200 0.339900 0.124700
vn 0.942800 0.321100 0.089400
vn 0.892700 0.390500 0.224900
vn 0.741900 0.642500 -0.191900
vn 0.790300 0.594800 -0.147000
vn 0.756700 0.628800 -0.178800
vn 0.783200 0.588300 -0.201200
vn 0.831100 0.536200 -0.147200
vn 0.802200 0.569000 -0.180700
vn 0.823100 0.528300 -0.208500
vn 0.870700 0.471300 -0.141000
vn 0.847100 0.501400 -0.176100
vn 0.861500 0.461100 -0.212700
vn 0.908800 0.398500 -0.123800
vn 0.891200 0.424500 -0.160000
vn 0.896700 0.390000 -0.209400
vn 0.944500 0.318600 -0.079700
vn 0.933200 0.339700 -0.116800
vn 0.169100 0.626700 -0.760700
vn 0.134600 0.590400 -0.795800
vn 0.184500 0.642300 -0.743900
vn 0.168000 0.566100 -0.807100
vn 0.131200 0.530800 -0.837300
vn 0.192000 0.588300 -0.785500
vn 0.158500 0.497200 -0.853000
vn 0.119600 0.464500 -0.877500
vn 0.196800 0.528300 -0.825900
vn 0.133800 0.418300 -0.898400
vn 0.093100 0.389600 -0.916300
vn 0.197400 0.461400 -0.864900
vn 0.072600 0.329400 -0.941400
vn 0.029800 0.305400 -0.951800
vn 0.188000 0.390700 -0.901100
vn -0.493600 -0.805300 0.328400
vn -0.409300 -0.815400 0.409300
vn -0.658500 -0.741400 0.129300
vn 0.103900 -0.822400 -0.559300
vn 0.000000 -0.829400 -0.558600
vn 0.360300 -0.764900 -0.533900
vn 0.376000 -0.732500 0.567500
vn 0.000000 -0.801800 0.597500
vn 0.117700 -0.793000 0.597700
vn -0.574700 -0.811400 -0.106400
vn -0.577700 -0.816300 0.000000
vn -0.539200 -0.759600 -0.363700
vn 0.539000 -0.759700 -0.363600
vn 0.577500 -0.816400 0.000000
vn 0.574500 -0.811600 -0.106300
vn -0.117700 -0.793000 0.597800
vn -0.376100 -0.732300 0.567700
vn -0.360400 -0.764800 -0.534100
vn -0.104000 -0.822400 -0.559400
vn 0.658300 -0.741600 0.129200
vn 0.409200 -0.815500 0.409200
vn 0.493400 -0.805400 0.328400
vn 0.400700 -0.908600 0.117900
vn 0.384700 -0.923100 0.000000
vn 0.411200 -0.879800 0.238400
vn -0.232900 -0.888500 -0.395300
vn 0.000000 -0.927000 -0.375200
vn -0.109100 -0.915500 -0.387200
vn -0.121000 -0.904800 0.408300
vn -0.000000 -0.918800 0.394700
vn -0.240300 -0.877100 0.415800
vn 0.399300 -0.886300 -0.234700
vn 0.394400 -0.912100 -0.111700
vn -0.394500 -0.912100 -0.111800
vn -0.384800 -0.923000 0.000000
vn -0.399400 -0.886200 -0.234800
vn 0.240200 -0.877200 0.415700
vn 0.121000 -0.904800 0.408300
vn 0.109100 -0.915500 -0.387200
vn 0.232900 -0.888600 -0.395200
vn -0.411400 -0.879700 0.238400
vn -0.400800 -0.908500 0.118000
vn 0.310800 -0.945500 0.097000
vn 0.296000 -0.955200 0.000000
vn 0.321400 -0.929200 0.182800
vn -0.179400 -0.933300 -0.311200
vn 0.000000 -0.957000 -0.290200
vn -0.091000 -0.948900 -0.302100
vn -0.099100 -0.943800 0.315400
vn -0.000000 -0.953300 0.302100
vn -0.183900 -0.927900 0.324400
vn 0.313900 -0.932100 -0.180500
vn 0.306400 -0.947400 -0.092800
vn -0.306500 -0.947300 -0.092900
vn -0.296100 -0.955200 0.000000
vn -0.314000 -0.932100 -0.180500
vn 0.183900 -0.927900 0.324300
vn 0.099100 -0.943800 0.315400
vn 0.091000 -0.948900 -0.302000
vn 0.179400 -0.933300 -0.311200
vn -0.321400 -0.929100 0.182800
vn -0.310800 -0.945500 0.097000
vn 0.251600 -0.964400 0.081800
vn 0.238100 -0.971200 0.000000
vn 0.261100 -0.954100 0.146400
vn -0.144200 -0.956300 -0.254300
vn 0.000000 -0.972200 -0.234300
vn -0.077600 -0.966200 -0.245700
vn -0.083300 -0.963400 0.254700
vn -0.000000 -0.970200 0.242200
vn -0.147200 -0.953500 0.263100
vn 0.256100 -0.955700 -0.145000
vn 0.248600 -0.965400 -0.078900
vn -0.248600 -0.965400 -0.078900
vn -0.238200 -0.971200 0.000000
vn -0.256200 -0.955700 -0.145000
vn 0.147200 -0.953500 0.263100
vn 0.083300 -0.963400 0.254700
vn 0.077600 -0.966300 -0.245600
vn 0.144200 -0.956300 -0.254200
vn -0.261100 -0.954100 0.146500
vn -0.251700 -0.964300 0.081800
vn 0.210600 -0.975000 0.070500
vn 0.198400 -0.980100 0.000000
vn 0.218900 -0.968100 0.121600
vn -0.120000 -0.969400 -0.214000
vn 0.000000 -0.980700 -0.195700
vn -0.067300 -0.976200 -0.206300
vn -0.071600 -0.974500 0.212800
vn 0.000000 -0.979600 0.201200
vn -0.122100 -0.967700 0.220300
vn 0.215400 -0.969100 -0.120600
vn 0.208400 -0.975700 -0.068300
vn -0.208400 -0.975600 -0.068300
vn -0.198400 -0.980100 0.000000
vn -0.215400 -0.969100 -0.120600
vn 0.122100 -0.967800 0.220300
vn 0.071600 -0.974500 0.212800
vn 0.067300 -0.976200 -0.206300
vn 0.120000 -0.969400 -0.214000
vn -0.218900 -0.968100 0.121600
vn -0.210700 -0.975000 0.070500
vn 0.180600 -0.981600 0.061900
vn 0.169300 -0.985600 0.000000
vn 0.187800 -0.976800 0.103400
vn -0.102300 -0.977600 -0.184200
vn 0.000000 -0.985900 -0.167300
vn -0.059500 -0.982300 -0.177300
vn -0.062800 -0.981300 0.182200
vn 0.000000 -0.985200 0.171300
vn -0.103800 -0.976500 0.188900
vn 0.185200 -0.977300 -0.102600
vn 0.178800 -0.982000 -0.060300
vn -0.178900 -0.982000 -0.060300
vn -0.169300 -0.985600 0.000000
vn -0.185200 -0.977300 -0.102600
vn 0.107900 -0.975900 0.189500
vn 0.062800 -0.981300 0.182100
vn 0.059500 -0.982300 -0.177300
vn 0.106200 -0.977000 -0.184800
vn -0.187800 -0.976800 0.103400
vn -0.180600 -0.981600 0.061900
vn 0.211000 0.249000 -0.945200
vn 0.935300 0.272400 -0.226000
vn 0.929800 0.272200 0.247600
vn 0.283200 0.265000 0.921700
vn -0.283300 0.265100 0.921700
vn -0.930600 0.259700 0.257900
vn 0.925700 0.378200 0.000000
vn 0.358500 0.933500 0.000000
vn -0.936900 0.255400 -0.238700
vn -0.211100 0.249100 -0.945200
vn 0.000000 -0.819700 0.572800
vn -0.113600 -0.986700 0.116300
vn -0.554200 -0.832400 0.000000
vn 0.000000 -0.844000 -0.536300
vn 0.554000 -0.832500 0.000000
vn -0.207300 0.664900 -0.717600
vn -0.216300 0.610100 -0.762200
vn -0.222400 0.548400 -0.806100
vn -0.223700 0.478500 -0.849100
vn -0.214500 0.403900 -0.889300
vn -0.745000 0.639600 -0.189300
vn -0.760900 0.609000 -0.223800
vn -0.804300 0.547100 -0.232000
vn -0.846400 0.477000 -0.236600
vn -0.885400 0.402200 -0.233100
vn -0.744300 0.639100 0.193800
vn -0.759800 0.608100 0.230000
vn -0.802700 0.546100 0.239800
vn -0.844300 0.475800 0.246700
vn -0.882400 0.400800 0.246600
vn -0.224100 0.662400 0.714900
vn -0.237200 0.607100 0.758400
vn -0.249000 0.544800 0.800800
vn -0.259000 0.474200 0.841500
vn -0.264100 0.398900 0.878100
vn 0.224000 0.662400 0.714900
vn 0.237100 0.607100 0.758400
vn 0.249000 0.544800 0.800800
vn 0.258900 0.474200 0.841500
vn 0.264000 0.398900 0.878200
vn 0.715900 0.663300 0.218200
vn 0.759800 0.608200 0.229900
vn 0.802700 0.546100 0.239700
vn 0.844300 0.475800 0.246500
vn 0.882400 0.400800 0.246300
vn 0.716700 0.664000 -0.213100
vn 0.760900 0.609100 -0.223600
vn 0.804300 0.547100 -0.231900
vn 0.846500 0.477100 -0.236400
vn 0.885500 0.402200 -0.232800
vn 0.207300 0.664900 -0.717600
vn 0.216300 0.610100 -0.762200
vn 0.222400 0.548400 -0.806100
vn 0.223700 0.478500 -0.849100
vn 0.214400 0.404000 -0.889300
vn -0.738100 -0.674700 0.000000
vn 0.501200 -0.705400 -0.501200
vn 0.527100 -0.666500 0.527100
vn -0.501400 -0.705200 -0.501400
vn -0.527300 -0.666300 0.527300
vn 0.737800 -0.675100 0.000000
vn 0.415000 -0.809600 0.415000
vn -0.395900 -0.828500 -0.395900
vn -0.415200 -0.809500 0.415200
vn 0.395800 -0.828600 -0.395800
vn 0.334200 -0.881300 0.334200
vn -0.320700 -0.891200 -0.320700
vn -0.334300 -0.881200 0.334300
vn 0.320600 -0.891300 -0.320600
vn 0.276900 -0.920100 0.276900
vn -0.267200 -0.925900 -0.267200
vn -0.277000 -0.920100 0.277000
vn 0.267100 -0.925900 -0.267100
vn 0.235200 -0.943000 0.235200
vn -0.228000 -0.946600 -0.228000
vn -0.235300 -0.943000 0.235300
vn 0.228000 -0.946600 -0.228000
vn 0.203900 -0.957500 0.203900
vn -0.198400 -0.959800 -0.198400
vn -0.204000 -0.957500 0.204000
vn 0.198400 -0.959800 -0.198400
usemtl mat1.001
s 1
f 26//19 28//20 82//21
f 82//22 28//23 30//24
f 30//25 32//26 84//27
f 84//28 32//29 34//30
f 34//31 36//32 86//33
f 86//34 36//35 38//36
f 38//37 28//38 40//37
f 38//39 40//40 88//41
f 88//42 40//43 26//44
f 31//45 35//46 39//47
f 127//48 80//49 41//50
f 120//51 79//52 42//53
f 112//54 78//55 43//56
f 104//57 77//58 44//59
f 96//60 76//61 45//62
f 75//63 80//64 127//65
f 74//66 79//67 120//68
f 73//69 78//70 112//71
f 72//72 77//73 104//74
f 71//75 76//76 96//77
f 125//78 70//79 75//80
f 118//81 69//82 74//83
f 110//84 68//85 73//86
f 102//87 67//88 72//89
f 94//90 66//91 71//92
f 65//93 70//94 125//95
f 64//96 69//97 118//98
f 63//99 68//100 110//101
f 62//102 67//103 102//104
f 61//105 66//106 94//107
f 123//108 60//109 65//110
f 116//111 59//112 64//113
f 108//114 58//115 63//116
f 100//117 57//118 62//119
f 92//120 56//121 61//122
f 55//123 60//124 123//125
f 54//126 59//127 116//128
f 53//129 58//130 108//131
f 52//132 57//133 100//134
f 51//135 56//136 92//137
f 121//138 50//139 55//140
f 114//141 49//142 54//143
f 106//144 48//145 53//146
f 98//147 47//148 52//149
f 90//150 46//151 51//152
f 41//153 50//154 121//155
f 42//156 49//157 114//158
f 43//159 48//160 106//161
f 44//162 47//163 98//164
f 45//165 46//166 90//167
f 76//168 88//169 81//170
f 71//171 87//172 88//173
f 86//174 87//175 71//176
f 61//177 85//178 86//179
f 84//180 85//181 61//182
f 51//183 83//175 84//184
f 82//185 83//172 51//186
f 81//187 82//188 46//189
f 44//190 89//191 90//192
f 90//193 91//194 52//195
f 52//196 91//197 92//198
f 92//199 93//191 62//200
f 62//201 93//202 94//203
f 94//204 95//197 72//205
f 72//206 95//194 96//207
f 96//208 89//202 44//209
f 43//210 97//211 98//212
f 98//213 99//214 53//215
f 53//216 99//217 100//218
f 100//219 101//211 63//220
f 63//221 101//222 102//223
f 102//224 103//217 73//225
f 73//226 103//214 104//227
f 104//228 97//222 43//229
f 42//230 105//231 106//232
f 106//233 107//234 54//235
f 54//236 107//237 108//238
f 108//239 109//231 64//240
f 64//241 109//242 110//243
f 110//244 111//237 74//245
f 74//246 111//234 112//247
f 112//248 105//242 42//249
f 41//250 113//251 114//252
f 114//253 115//254 55//255
f 55//256 115//257 116//258
f 116//259 117//251 65//260
f 65//261 117//262 118//263
f 118//264 119//257 75//265
f 75//266 119//254 120//267
f 120//268 113//262 41//269
f 25//270 128//271 121//272
f 121//273 122//274 29//275
f 29//276 122//277 123//278
f 123//279 124//271 33//280
f 33//281 124//282 125//283
f 125//284 126//277 37//285
f 37//286 126//274 127//287
f 127//288 128//282 25//289
f 81//290 26//19 82//21
f 83//291 82//22 30//24
f 83//292 30//25 84//27
f 85//293 84//28 34//30
f 85//294 34//31 86//33
f 87//295 86//34 38//36
f 30//296 28//38 32//297
f 26//37 40//37 28//38
f 38//37 36//37 32//297
f 34//37 32//297 36//37
f 28//38 38//37 32//297
f 87//298 38//39 88//41
f 81//299 88//42 26//44
f 39//47 25//300 27//301
f 27//301 29//302 31//45
f 31//45 33//303 35//46
f 35//46 37//304 39//47
f 39//47 27//301 31//45
f 128//305 127//48 41//50
f 113//306 120//51 42//53
f 105//307 112//54 43//56
f 97//308 104//57 44//59
f 89//309 96//60 45//62
f 126//310 75//63 127//65
f 119//311 74//66 120//68
f 111//312 73//69 112//71
f 103//313 72//72 104//74
f 95//314 71//75 96//77
f 126//315 125//78 75//80
f 119//316 118//81 74//83
f 111//317 110//84 73//86
f 103//318 102//87 72//89
f 95//319 94//90 71//92
f 124//320 65//93 125//95
f 117//321 64//96 118//98
f 109//322 63//99 110//101
f 101//323 62//102 102//104
f 93//324 61//105 94//107
f 124//325 123//108 65//110
f 117//326 116//111 64//113
f 109//327 108//114 63//116
f 101//328 100//117 62//119
f 93//329 92//120 61//122
f 122//330 55//123 123//125
f 115//331 54//126 116//128
f 107//332 53//129 108//131
f 99//333 52//132 100//134
f 91//334 51//135 92//137
f 122//335 121//138 55//140
f 115//336 114//141 54//143
f 107//337 106//144 53//146
f 99//338 98//147 52//149
f 91//339 90//150 51//152
f 128//340 41//153 121//155
f 113//341 42//156 114//158
f 105//342 43//159 106//161
f 97//343 44//162 98//164
f 89//344 45//165 90//167
f 45//345 76//168 81//170
f 76//346 71//171 88//173
f 66//347 86//174 71//176
f 66//348 61//177 86//179
f 56//346 84//180 61//182
f 56//349 51//183 84//184
f 46//348 82//185 51//186
f 45//350 81//187 46//189
f 47//351 44//190 90//192
f 47//352 90//193 52//195
f 57//353 52//196 92//198
f 57//354 92//199 62//200
f 67//352 62//201 94//203
f 67//351 94//204 72//205
f 77//354 72//206 96//207
f 77//353 96//208 44//209
f 48//355 43//210 98//212
f 48//356 98//213 53//215
f 58//357 53//216 100//218
f 58//358 100//219 63//220
f 68//356 63//221 102//223
f 68//355 102//224 73//225
f 78//358 73//226 104//227
f 78//357 104//228 43//229
f 49//359 42//230 106//232
f 49//360 106//233 54//235
f 59//361 54//236 108//238
f 59//362 108//239 64//240
f 69//360 64//241 110//243
f 69//359 110//244 74//245
f 79//362 74//246 112//247
f 79//361 112//248 42//249
f 50//363 41//250 114//252
f 50//364 114//253 55//255
f 60//365 55//256 116//258
f 60//366 116//259 65//260
f 70//364 65//261 118//263
f 70//363 118//264 75//265
f 80//366 75//266 120//267
f 80//365 120//268 41//269
f 27//367 25//270 121//272
f 27//368 121//273 29//275
f 31//369 29//276 123//278
f 31//370 123//279 33//280
f 35//368 33//281 125//283
f 35//367 125//284 37//285
f 39//370 37//286 127//287
f 39//369 127//288 25//289
