# Blender v2.76 (sub 0) OBJ File: ''
# www.blender.org
mtllib lowpolytree.mtl
o Cylinder
v 0.015674 4.365569 -0.253986
v 0.019167 5.126236 0.022686
v 0.028745 5.126236 0.026172
v 0.199847 4.365570 -0.186952
v 0.033842 5.126236 0.034999
v 0.292234 4.302243 -0.023413
v 0.032072 5.126236 0.045037
v 0.263809 4.365569 0.175798
v 0.024263 5.126236 0.051589
v 0.113670 4.365569 0.301780
v 0.014070 5.126236 0.051589
v -0.087932 4.302243 0.295584
v 0.006262 5.126236 0.045037
v -0.232462 4.365569 0.175798
v 0.004492 5.126236 0.034999
v -0.266496 4.365569 -0.017217
v 0.009589 5.126236 0.026172
v -0.174109 4.302243 -0.193148
v -0.005440 1.089759 -0.939428
v 0.637348 1.089759 -0.705472
v 0.979368 0.895682 -0.113076
v 0.860586 0.895682 0.560572
v 0.336580 1.089759 1.000265
v -0.353069 1.026433 0.994068
v -0.871465 0.895682 0.560572
v -0.990247 0.895682 -0.113076
v -0.653837 0.832355 -0.711668
v -1.162461 0.844349 -0.150182
v -0.862932 1.445815 -0.094124
v -0.569643 1.382489 -0.618026
v -0.766733 0.781023 -0.851516
v -0.002290 1.445815 -0.816288
v -0.006855 0.844349 -1.119851
v -1.023078 0.844349 0.640299
v -0.759126 1.445815 0.494589
v -0.413802 0.781023 1.150053
v -0.306797 1.382489 0.872648
v 0.394483 0.844349 1.156250
v 0.296607 1.445815 0.878845
v 1.009368 0.844349 0.640300
v 0.754545 1.445815 0.494589
v 1.143143 0.781023 -0.156378
v 0.858351 1.445815 -0.094124
v 0.747414 0.844349 -0.845319
v 0.559453 1.445815 -0.611830
v -0.470645 3.592064 -0.047718
v -0.162981 4.415660 0.010068
v -0.106769 4.352333 -0.103204
v -0.309076 3.528737 -0.343475
v 0.015024 4.415660 -0.139296
v 0.010725 3.592064 -0.451635
v -0.412585 3.592064 0.281558
v -0.141511 4.415660 0.131830
v -0.162062 3.528738 0.490282
v -0.052405 4.352333 0.205109
v 0.177903 3.592064 0.496478
v 0.076845 4.415660 0.211305
v 0.434034 3.592064 0.281558
v 0.171559 4.415660 0.131830
v 0.486486 3.528737 -0.053915
v 0.193029 4.415660 0.010068
v 0.324917 3.592064 -0.337279
v 0.131209 4.415660 -0.097008
v 0.005286 2.741901 -0.671042
v 0.010529 3.644611 -0.315061
v 0.242392 3.644611 -0.230669
v 0.463775 2.741901 -0.504165
v 0.365764 3.644611 -0.016983
v 0.702124 2.678574 -0.087815
v 0.322917 3.644611 0.226012
v 0.623007 2.741901 0.398883
v 0.133901 3.644611 0.384616
v 0.249243 2.741901 0.712509
v -0.118452 3.581285 0.378420
v -0.244281 2.678575 0.706312
v -0.301860 3.644611 0.226012
v -0.612436 2.741901 0.398883
v -0.344706 3.644611 -0.016983
v -0.697161 2.741901 -0.081619
v -0.458813 2.678575 -0.510362
v -0.226943 3.581284 -0.236866
v -0.864248 1.978046 -0.105654
v -0.545192 2.793963 -0.046827
v -0.359524 2.730636 -0.384325
v -0.569569 1.914720 -0.631965
v 0.005569 2.793963 -0.508971
v 0.000399 1.978046 -0.831178
v -0.759959 1.978047 0.485799
v -0.478762 2.793963 0.329916
v -0.305499 1.914720 0.865646
v -0.191317 2.730636 0.569622
v 0.300687 1.978047 0.871843
v 0.196847 2.793963 0.575818
v 0.760756 1.978046 0.485799
v 0.489901 2.793963 0.329917
v 0.859436 1.914720 -0.111850
v 0.556331 2.793963 -0.046827
v 0.564756 1.978047 -0.625769
v 0.365054 2.793963 -0.378129
v -0.003388 1.386261 -0.997131
v 0.001149 2.035720 -0.681816
v 0.474390 2.035721 -0.509570
v 0.669916 1.386262 -0.752068
v 0.726197 2.035720 -0.073428
v 1.022565 1.322935 -0.137744
v 0.638746 2.035721 0.422534
v 0.903752 1.386262 0.574081
v 0.252955 2.035721 0.746250
v 0.354870 1.386262 1.034648
v -0.256267 1.972394 0.740054
v -0.367254 1.322935 1.028452
v -0.636448 2.035721 0.422534
v -0.910528 1.386262 0.574081
v -0.723899 2.035720 -0.073428
v -1.034949 1.386261 -0.131548
v -0.682301 1.322935 -0.758265
v -0.477702 1.972394 -0.515766
v -0.018886 0.584812 -0.264436
v -0.018886 1.179041 -0.373037
v 0.231064 1.179041 -0.282063
v 0.161257 0.584812 -0.198870
v 0.364060 1.179041 -0.051708
v 0.257109 0.584812 -0.032850
v 0.317871 1.179041 0.210242
v 0.223820 0.584812 0.155942
v 0.114110 1.179041 0.381218
v 0.076966 0.584812 0.279167
v -0.151881 1.179041 0.381218
v -0.114738 0.584812 0.279166
v -0.355642 1.179041 0.210242
v -0.261591 0.584812 0.155942
v -0.401831 1.179041 -0.051708
v -0.294880 0.584812 -0.032850
v -0.268836 1.179041 -0.282063
v -0.199028 0.584812 -0.198870
v -0.018886 0.003595 -0.373037
v 0.231064 0.003595 -0.282063
v 0.364060 0.003595 -0.051708
v 0.317871 0.003595 0.210242
v 0.114110 0.003595 0.381218
v -0.151881 0.003595 0.381218
v -0.355642 0.003595 0.210242
v -0.401831 0.003595 -0.051708
v -0.268836 0.003595 -0.282063
vn 0.323800 0.322100 -0.889600
vn 0.875100 0.301400 -0.378600
vn 0.821200 0.317600 -0.474200
vn 0.829200 0.315600 -0.461300
vn 0.938900 0.311100 0.147400
vn 0.935200 0.313300 0.164900
vn 0.954100 0.296400 0.042900
vn 0.610800 0.311200 0.728000
vn 0.610900 0.311200 0.728000
vn -0.121100 0.295800 0.947500
vn 0.000000 0.312400 0.949900
vn -0.017600 0.310300 0.950500
vn -0.598900 0.314400 0.736500
vn -0.609800 0.316300 0.726700
vn -0.527700 0.300700 0.794400
vn -0.932700 0.321000 0.164500
vn -0.932700 0.321000 0.164400
vn 0.000000 1.000000 -0.000000
vn -0.332100 0.323700 -0.886000
vn -0.323500 0.324700 -0.888800
vn -0.383300 0.316500 -0.867700
vn -0.788500 0.316300 -0.527400
vn -0.819200 0.324300 -0.473100
vn -0.815000 0.323200 -0.480900
vn -0.095600 -0.990800 -0.096200
vn 0.052700 -0.997300 0.052000
vn 0.090200 -0.995600 -0.027100
vn -0.766700 0.430700 -0.476100
vn -0.766300 0.426400 -0.480500
vn -0.766700 0.431000 -0.475800
vn -0.335700 0.430300 -0.837900
vn -0.340500 0.425700 -0.838400
vn -0.336000 0.430000 -0.838000
vn -0.889800 0.428500 0.156900
vn -0.551000 0.422800 0.719500
vn -0.548100 0.416300 0.725500
vn -0.550900 0.422500 0.719700
vn -0.046100 0.418100 0.907200
vn -0.052500 0.411200 0.910000
vn -0.045600 0.418600 0.907000
vn 0.584400 0.416300 0.696500
vn 0.907200 0.397100 0.138700
vn 0.894900 0.417400 0.157800
vn 0.907100 0.397300 0.138800
vn 0.801500 0.403500 -0.441400
vn 0.785400 0.421400 -0.453400
vn 0.801400 0.403600 -0.441500
vn 0.309300 0.426600 -0.849900
vn -0.789200 0.340400 -0.511200
vn -0.762700 0.324200 -0.559700
vn -0.768300 0.327600 -0.549900
vn -0.408900 0.327200 -0.851900
vn -0.419600 0.323800 -0.848000
vn -0.366900 0.340100 -0.865900
vn -0.927900 0.335100 0.163600
vn -0.482100 0.310700 0.819200
vn -0.466500 0.304500 0.830400
vn -0.543300 0.334800 0.769900
vn -0.091000 0.332200 0.938800
vn -0.191800 0.300000 0.934500
vn -0.170600 0.307100 0.936300
vn 0.607800 0.325400 0.724400
vn 0.935000 0.322300 0.147800
vn 0.930800 0.326500 0.164100
vn 0.946300 0.308700 0.096400
vn 0.850700 0.314000 -0.421600
vn 0.817500 0.330000 -0.472000
vn 0.825700 0.326300 -0.460200
vn 0.322400 0.334200 -0.885700
vn 0.320900 0.345800 -0.881700
vn 0.837200 0.327300 -0.438100
vn 0.813800 0.341900 -0.469900
vn 0.821800 0.337100 -0.459300
vn 0.930900 0.333700 0.148400
vn 0.926400 0.339200 0.163400
vn 0.939000 0.322600 0.119400
vn 0.604700 0.339000 0.720700
vn -0.064800 0.344400 0.936600
vn -0.105300 0.327600 0.938900
vn -0.092100 0.333100 0.938400
vn -0.540700 0.337000 0.770700
vn -0.532300 0.332200 0.778600
vn -0.559000 0.347400 0.752900
vn -0.923000 0.348700 0.162700
vn -0.368000 0.344800 -0.863500
vn -0.374900 0.342000 -0.861700
vn -0.353200 0.350900 -0.867300
vn -0.792600 0.351900 -0.498000
vn -0.783400 0.343000 -0.518300
vn -0.786400 0.345800 -0.511900
vn -0.796200 0.351700 -0.492400
vn -0.793000 0.346200 -0.501200
vn -0.794600 0.348900 -0.496800
vn -0.351600 0.347900 -0.869100
vn -0.356300 0.345100 -0.868300
vn -0.347000 0.350600 -0.869900
vn -0.922800 0.349100 0.162700
vn -0.563000 0.341600 0.752600
vn -0.558000 0.337200 0.758200
vn -0.568100 0.346100 0.746600
vn -0.052300 0.342500 0.938100
vn -0.069200 0.332400 0.940600
vn -0.060700 0.337600 0.939300
vn 0.604800 0.338500 0.720800
vn 0.932300 0.330100 0.147800
vn 0.926600 0.338800 0.163400
vn 0.937600 0.321400 0.132500
vn 0.832100 0.326700 -0.448300
vn 0.813900 0.341800 -0.469900
vn 0.823000 0.334300 -0.459200
vn 0.320900 0.346100 -0.881600
vn 0.311400 0.413300 -0.855700
vn 0.808500 0.390300 -0.440500
vn 0.790500 0.408400 -0.456400
vn 0.804700 0.394200 -0.444000
vn 0.910800 0.388400 0.139800
vn 0.900600 0.404500 0.158800
vn 0.913300 0.384200 0.134900
vn 0.588100 0.403500 0.700900
vn -0.050600 0.405800 0.912500
vn -0.060500 0.397100 0.915800
vn -0.052300 0.404400 0.913100
vn -0.550600 0.408400 0.728100
vn -0.546500 0.402100 0.734600
vn -0.551500 0.409900 0.726500
vn -0.896000 0.415000 0.158000
vn -0.341400 0.416000 -0.842900
vn -0.346700 0.411600 -0.842800
vn -0.340200 0.416900 -0.842900
vn -0.770900 0.417600 -0.481000
vn -0.769700 0.412300 -0.487400
vn -0.770700 0.416600 -0.482200
vn 0.197600 -0.844900 0.497100
vn 0.140100 -0.905900 0.399600
vn 0.172300 -0.873900 0.454500
vn 0.421300 -0.867100 0.266000
vn 0.372200 -0.901000 0.223100
vn 0.454200 -0.840600 0.295100
vn 0.451100 -0.888900 -0.079500
vn 0.028700 -0.833100 -0.552300
vn 0.013700 -0.877100 -0.480200
vn 0.041000 -0.791800 -0.609300
vn 0.350100 -0.796900 -0.492300
vn 0.288300 -0.881200 -0.374600
vn 0.318700 -0.843700 -0.432000
vn -0.304900 -0.880400 -0.363300
vn -0.651400 -0.757100 0.049400
vn -0.732000 -0.672500 0.109300
vn -0.610600 -0.791600 0.021500
vn -0.616700 -0.770400 0.162000
vn -0.579400 -0.815000 0.011700
vn -0.623000 -0.757100 0.196400
vn -0.143900 -0.907200 0.395400
vn -0.129500 -0.925500 0.355900
vn -0.510000 -0.847200 0.148800
vn -0.469100 -0.880300 0.070800
vn -0.558200 -0.790200 0.252900
vn -0.630000 -0.776500 0.007400
vn -0.687500 -0.725600 0.029500
vn -0.513400 -0.857500 -0.033500
vn -0.269100 -0.908100 -0.320700
vn 0.210500 -0.868300 -0.449100
vn 0.177100 -0.915600 -0.361000
vn 0.187100 -0.902700 -0.387300
vn 0.105600 -0.900900 -0.421100
vn 0.095700 -0.914800 -0.392400
vn 0.126300 -0.868100 -0.480100
vn 0.398700 -0.914400 -0.070300
vn 0.287200 -0.918500 0.271800
vn 0.269000 -0.929800 0.251100
vn 0.320900 -0.894900 0.310200
vn 0.247400 -0.895600 0.369800
vn 0.197100 -0.931100 0.307000
vn 0.213800 -0.920200 0.327900
vn 0.230300 -0.928500 0.291400
vn 0.187800 -0.951200 0.244900
vn 0.198300 -0.946000 0.256300
vn 0.218500 -0.945600 0.240900
vn 0.208800 -0.950900 0.228300
vn 0.246600 -0.928600 0.277300
vn 0.335600 -0.940100 -0.059200
vn 0.110600 -0.935900 -0.334500
vn 0.104000 -0.942200 -0.318600
vn 0.131500 -0.913700 -0.384600
vn 0.146600 -0.913300 -0.379900
vn 0.124800 -0.942300 -0.310500
vn 0.129700 -0.936400 -0.326100
vn -0.226300 -0.936000 -0.269700
vn -0.575000 -0.818100 -0.009600
vn -0.620400 -0.784300 0.001200
vn -0.425000 -0.904200 -0.042000
vn -0.419300 -0.898500 0.129800
vn -0.383600 -0.920100 0.079600
vn -0.498800 -0.830100 0.249200
vn -0.110700 -0.946200 0.304100
vn -0.130200 -0.924700 0.357700
vn -0.444100 -0.881200 0.161900
vn -0.413500 -0.901700 0.126000
vn -0.549900 -0.781600 0.294600
vn -0.643900 -0.764100 -0.039000
vn -0.677200 -0.735000 -0.033900
vn -0.465100 -0.883000 -0.062300
vn -0.266000 -0.910400 -0.317000
vn 0.112700 -0.892000 -0.437800
vn 0.099900 -0.918500 -0.382600
vn 0.101900 -0.914600 -0.391400
vn 0.173500 -0.915100 -0.364000
vn 0.169300 -0.919100 -0.355700
vn 0.194400 -0.893500 -0.404900
vn 0.392700 -0.917000 -0.069200
vn 0.392700 -0.917000 -0.069300
vn 0.212500 -0.928200 0.305400
vn 0.207700 -0.931600 0.298200
vn 0.234100 -0.911400 0.338500
vn 0.294900 -0.910300 0.290500
vn 0.259200 -0.931000 0.257100
vn 0.265300 -0.927600 0.262900
vn 0.256900 -0.932800 0.252900
vn 0.224800 -0.948700 0.222300
vn 0.230300 -0.946100 0.227600
vn 0.183900 -0.946500 0.265300
vn 0.179600 -0.949100 0.258800
vn 0.203900 -0.933400 0.295300
vn 0.338100 -0.939200 -0.059600
vn 0.148200 -0.938600 -0.311500
vn 0.144400 -0.941700 -0.303900
vn 0.166500 -0.922500 -0.348300
vn 0.097300 -0.921500 -0.376000
vn 0.085300 -0.941300 -0.326700
vn 0.087300 -0.938300 -0.334600
vn -0.228200 -0.934800 -0.272000
vn -0.572000 -0.819600 -0.034200
vn -0.603900 -0.796500 -0.029900
vn -0.403700 -0.913300 -0.054000
vn -0.386600 -0.911300 0.141400
vn -0.359100 -0.926700 0.110600
vn -0.489800 -0.831200 0.263000
vn -0.113300 -0.943500 0.311400
vn -0.281700 -0.567300 0.773800
vn -0.759500 -0.586400 0.281700
vn -0.519000 -0.825300 0.222300
vn -0.585000 -0.774800 0.239600
vn -0.549400 -0.834800 -0.035000
vn -0.579000 -0.814700 -0.032500
vn -0.357300 -0.932700 -0.049300
vn -0.298400 -0.902300 -0.311200
vn -0.200100 -0.950300 -0.238500
vn -0.606500 -0.596300 -0.525900
vn 0.054200 -0.530900 -0.845700
vn 0.049100 -0.544400 -0.837400
vn 0.050500 -0.540600 -0.839700
vn 0.562600 -0.612000 -0.555800
vn 0.157600 -0.939200 -0.305000
vn 0.256200 -0.892000 -0.372400
vn 0.295600 -0.953900 -0.052100
vn 0.227300 -0.915000 0.333300
vn 0.159300 -0.961400 0.224300
vn 0.428500 -0.615900 0.661100
vn 0.225400 -0.948100 0.224400
vn 0.194000 -0.961200 0.196200
vn 0.198600 -0.959400 0.200400
vn 0.875500 0.301300 -0.377900
vn 0.954200 0.296200 0.042000
vn -0.122000 0.295700 0.947500
vn -0.527100 0.300600 0.794900
vn -0.383700 0.316500 -0.867500
vn -0.788300 0.316200 -0.527800
vn 0.447600 -0.827500 0.339100
vn 0.255400 -0.965300 0.054000
vn 0.138100 -0.914800 -0.379500
vn -0.085900 -0.994500 0.059400
vn 0.076100 -0.875500 0.477100
vn 0.283300 -0.957700 -0.050000
vn -0.767000 0.434600 -0.472000
vn -0.331900 0.433900 -0.837600
vn -0.553400 0.428000 0.714600
vn -0.040200 0.424400 0.904600
vn 0.916300 0.381000 0.123600
vn 0.813800 0.389100 -0.431700
vn -0.791900 0.342100 -0.505800
vn -0.361100 0.341800 -0.867600
vn -0.550700 0.337600 0.763400
vn -0.079600 0.335600 0.938600
vn 0.947400 0.307000 0.090200
vn 0.853600 0.312500 -0.416900
vn 0.841300 0.324600 -0.432200
vn 0.941000 0.319500 0.111400
vn -0.056400 0.347800 0.935900
vn -0.564100 0.350200 0.747700
vn -0.348800 0.352700 -0.868300
vn -0.794400 0.353700 -0.493800
vn -0.797400 0.353700 -0.489000
vn -0.343400 0.352600 -0.870500
vn -0.571800 0.349300 0.742300
vn -0.045800 0.346400 0.937000
vn 0.941100 0.315400 0.122000
vn 0.838000 0.321500 -0.440900
vn 0.818800 0.379300 -0.430900
vn 0.920400 0.371800 0.120600
vn -0.043900 0.411700 0.910300
vn -0.554700 0.415000 0.721100
vn -0.335800 0.420500 -0.842900
vn -0.771600 0.421100 -0.476700
vn 0.236200 -0.793500 0.560800
vn 0.511500 -0.786400 0.346400
vn 0.060100 -0.717900 -0.693500
vn 0.385500 -0.731800 -0.562000
vn -0.446500 -0.891300 -0.078700
vn -0.642100 -0.671100 0.370700
vn -0.593800 -0.727900 0.342800
vn -0.397600 -0.914900 -0.070100
vn 0.224000 -0.845200 -0.485200
vn 0.140000 -0.843300 -0.518800
vn 0.344700 -0.875900 0.337500
vn 0.269300 -0.877500 0.396900
vn 0.244700 -0.919600 0.307200
vn 0.260200 -0.919400 0.294900
vn 0.141100 -0.902200 -0.407600
vn 0.153600 -0.902400 -0.402600
vn -0.336800 -0.939700 -0.059400
vn -0.535300 -0.786100 0.309000
vn -0.579000 -0.743700 0.334300
vn -0.396500 -0.915400 -0.069900
vn 0.115600 -0.885300 -0.450500
vn 0.200500 -0.886600 -0.416900
vn 0.240700 -0.905900 0.348600
vn 0.303400 -0.904900 0.298400
vn 0.264800 -0.928500 0.260500
vn 0.210200 -0.929000 0.304700
vn 0.172000 -0.917200 -0.359500
vn 0.100100 -0.916300 -0.387700
vn -0.342100 -0.937700 -0.060300
vn -0.519200 -0.800300 0.299800
vn -0.800400 -0.524400 0.290300
vn -0.300200 -0.952400 -0.052900
vn -0.656100 -0.509000 -0.557200
vn 0.055900 -0.526100 -0.848600
vn 0.620200 -0.524300 -0.583500
vn 0.460300 -0.527600 0.714000
vn 0.232000 -0.945000 0.230400
vn 0.337100 -0.169300 -0.926100
vn 0.853500 -0.169300 -0.492800
vn 0.970600 -0.169300 0.171100
vn 0.633500 -0.169300 0.755000
vn -0.000000 -0.169300 0.985600
vn -0.633500 -0.169300 0.755000
vn -0.970600 -0.169300 0.171100
vn -0.337100 -0.169300 -0.926100
vn -0.853500 -0.169300 -0.492800
vn -0.000000 -1.000000 -0.000000
vn -0.853000 0.172900 -0.492500
vn -0.336900 0.172900 -0.925500
vn -0.970000 0.172900 0.171000
vn -0.633100 0.172900 0.754500
vn -0.000000 0.172900 0.984900
vn 0.633100 0.172900 0.754500
vn 0.970000 0.172900 0.171000
vn 0.853000 0.172900 -0.492500
vn 0.336900 0.172900 -0.925500
usemtl Leaves
s 1
f 2//1 3//1 4//1
f 4//2 3//3 5//4
f 5//5 7//6 8//7
f 7//8 9//8 10//9
f 10//10 9//11 11//12
f 11//13 13//14 14//15
f 14//16 13//17 15//17
f 2//18 9//18 7//18
f 17//19 2//20 1//21
f 16//22 15//23 17//24
f 21//25 24//26 19//27
f 28//28 29//29 30//30
f 30//31 32//32 33//33
f 34//34 35//34 29//34
f 37//35 35//36 34//37
f 38//38 39//39 37//40
f 40//41 41//41 39//41
f 43//42 41//43 40//44
f 44//45 45//46 43//47
f 32//48 45//48 44//48
f 46//49 47//50 48//51
f 48//52 50//53 51//54
f 52//55 53//55 47//55
f 55//56 53//57 52//58
f 56//59 57//60 55//61
f 58//62 59//62 57//62
f 61//63 59//64 58//65
f 62//66 63//67 61//68
f 50//69 63//69 62//69
f 65//70 66//70 67//70
f 67//71 66//72 68//73
f 68//74 70//75 71//76
f 71//77 70//77 72//77
f 73//78 72//79 74//80
f 74//81 76//82 77//83
f 77//84 76//84 78//84
f 81//85 65//86 64//87
f 79//88 78//89 81//90
f 82//91 83//92 84//93
f 84//94 86//95 87//96
f 88//97 89//97 83//97
f 91//98 89//99 88//100
f 92//101 93//102 91//103
f 94//104 95//104 93//104
f 97//105 95//106 94//107
f 98//108 99//109 97//110
f 86//111 99//111 98//111
f 101//112 102//112 103//112
f 103//113 102//114 104//115
f 104//116 106//117 107//118
f 107//119 106//119 108//119
f 109//120 108//121 110//122
f 110//123 112//124 113//125
f 113//126 112//126 114//126
f 117//127 101//128 100//129
f 115//130 114//131 117//132
f 16//133 18//134 48//135
f 48//136 18//137 1//138
f 14//139 16//139 47//139
f 55//140 12//141 14//142
f 10//143 12//144 55//145
f 59//146 8//146 10//146
f 61//147 6//148 8//149
f 63//150 4//151 6//152
f 50//153 1//153 4//153
f 65//154 51//154 62//154
f 66//155 62//156 60//157
f 68//158 60//159 58//160
f 70//161 58//161 56//161
f 56//162 54//163 74//164
f 74//165 54//166 52//167
f 52//168 46//168 78//168
f 81//169 49//170 51//171
f 46//172 49//173 81//174
f 79//175 80//176 84//177
f 84//178 80//179 64//180
f 77//181 79//181 83//181
f 91//182 75//183 77//184
f 73//185 75//186 91//187
f 95//188 71//188 73//188
f 97//189 69//190 71//191
f 99//192 67//193 69//194
f 86//195 64//195 67//195
f 101//196 87//196 98//196
f 102//197 98//198 96//199
f 104//200 96//201 94//202
f 106//203 94//203 92//203
f 92//204 90//205 110//206
f 110//207 90//208 88//209
f 88//210 82//211 114//211
f 117//212 85//213 87//214
f 82//215 85//216 117//217
f 115//218 116//219 30//220
f 30//221 116//222 100//223
f 113//224 115//224 29//224
f 37//225 111//226 113//227
f 109//228 111//229 37//230
f 41//231 107//231 109//231
f 43//232 105//233 107//234
f 45//235 103//236 105//237
f 32//238 100//238 103//238
f 19//239 33//239 44//239
f 44//240 42//241 21//242
f 21//243 42//244 40//245
f 22//246 40//247 38//248
f 38//249 36//250 24//251
f 36//252 34//253 25//254
f 34//255 28//255 26//255
f 27//256 31//257 33//258
f 28//259 31//260 27//261
f 1//1 2//1 4//1
f 6//262 4//2 5//4
f 6//263 5//5 8//7
f 8//9 7//8 10//9
f 12//264 10//10 11//12
f 12//265 11//13 14//15
f 16//16 14//16 15//17
f 5//18 3//18 7//18
f 2//18 17//18 11//18
f 15//18 13//18 11//18
f 11//18 9//18 2//18
f 7//18 3//18 2//18
f 17//18 15//18 11//18
f 18//266 17//19 1//21
f 18//267 16//22 17//24
f 27//268 19//27 26//269
f 20//270 21//25 19//27
f 22//271 23//272 24//26
f 24//26 25//273 26//269
f 26//269 19//27 24//26
f 21//25 22//271 24//26
f 31//274 28//28 30//30
f 31//275 30//31 33//33
f 28//34 34//34 29//34
f 36//276 37//35 34//37
f 36//277 38//38 37//40
f 38//41 40//41 39//41
f 42//278 43//42 40//44
f 42//279 44//45 43//47
f 33//48 32//48 44//48
f 49//280 46//49 48//51
f 49//281 48//52 51//54
f 46//55 52//55 47//55
f 54//282 55//56 52//58
f 54//283 56//59 55//61
f 56//62 58//62 57//62
f 60//284 61//63 58//65
f 60//285 62//66 61//68
f 51//69 50//69 62//69
f 64//70 65//70 67//70
f 69//286 67//71 68//73
f 69//287 68//74 71//76
f 73//77 71//77 72//77
f 75//288 73//78 74//80
f 75//289 74//81 77//83
f 79//84 77//84 78//84
f 80//290 81//85 64//87
f 80//291 79//88 81//90
f 85//292 82//91 84//93
f 85//293 84//94 87//96
f 82//97 88//97 83//97
f 90//294 91//98 88//100
f 90//295 92//101 91//103
f 92//104 94//104 93//104
f 96//296 97//105 94//107
f 96//297 98//108 97//110
f 87//111 86//111 98//111
f 100//112 101//112 103//112
f 105//298 103//113 104//115
f 105//299 104//116 107//118
f 109//119 107//119 108//119
f 111//300 109//120 110//122
f 111//301 110//123 113//125
f 115//126 113//126 114//126
f 116//302 117//127 100//129
f 116//303 115//130 117//132
f 47//304 16//133 48//135
f 50//305 48//136 1//138
f 53//139 14//139 47//139
f 53//306 55//140 14//142
f 57//307 10//143 55//145
f 57//146 59//146 10//146
f 59//308 61//147 8//149
f 61//309 63//150 6//152
f 63//153 50//153 4//153
f 66//154 65//154 62//154
f 68//310 66//155 60//157
f 70//311 68//158 58//160
f 72//161 70//161 56//161
f 72//312 56//162 74//164
f 76//313 74//165 52//167
f 76//168 52//168 78//168
f 65//314 81//169 51//171
f 78//315 46//172 81//174
f 83//316 79//175 84//177
f 86//317 84//178 64//180
f 89//181 77//181 83//181
f 89//318 91//182 77//184
f 93//319 73//185 91//187
f 93//188 95//188 73//188
f 95//320 97//189 71//191
f 97//321 99//192 69//194
f 99//195 86//195 67//195
f 102//196 101//196 98//196
f 104//322 102//197 96//199
f 106//323 104//200 94//202
f 108//203 106//203 92//203
f 108//324 92//204 110//206
f 112//325 110//207 88//209
f 112//210 88//210 114//211
f 101//326 117//212 87//214
f 114//327 82//215 117//217
f 29//328 115//218 30//220
f 32//329 30//221 100//223
f 35//224 113//224 29//224
f 35//330 37//225 113//227
f 39//331 109//228 37//230
f 39//231 41//231 109//231
f 41//332 43//232 107//234
f 43//333 45//235 105//237
f 45//238 32//238 103//238
f 20//239 19//239 44//239
f 20//334 44//240 21//242
f 22//335 21//243 40//245
f 23//336 22//246 38//248
f 23//337 38//249 24//251
f 24//338 36//252 25//254
f 25//255 34//255 26//255
f 19//339 27//256 33//258
f 26//340 28//259 27//261
usemtl Bark
f 119//341 120//341 121//341
f 120//342 122//342 123//342
f 122//343 124//343 125//343
f 125//344 124//344 126//344
f 127//345 126//345 128//345
f 129//346 128//346 130//346
f 130//347 132//347 133//347
f 119//18 128//18 124//18
f 135//348 134//348 119//348
f 133//349 132//349 134//349
f 137//350 142//350 143//350
f 133//351 135//351 144//351
f 135//352 118//352 136//352
f 131//353 133//353 143//353
f 129//354 131//354 142//354
f 127//355 129//355 141//355
f 125//356 127//356 140//356
f 123//357 125//357 139//357
f 137//358 121//358 123//358
f 118//359 121//359 137//359
f 118//341 119//341 121//341
f 121//342 120//342 123//342
f 123//343 122//343 125//343
f 127//344 125//344 126//344
f 129//345 127//345 128//345
f 131//346 129//346 130//346
f 131//347 130//347 133//347
f 122//18 120//18 124//18
f 119//18 134//18 132//18
f 132//18 130//18 119//18
f 128//18 126//18 124//18
f 124//18 120//18 119//18
f 119//18 130//18 128//18
f 118//348 135//348 119//348
f 135//349 133//349 134//349
f 144//350 136//350 143//350
f 137//350 138//350 139//350
f 139//350 140//350 141//350
f 141//350 142//350 137//350
f 143//350 136//350 137//350
f 137//350 139//350 141//350
f 143//351 133//351 144//351
f 144//352 135//352 136//352
f 142//353 131//353 143//353
f 141//354 129//354 142//354
f 140//355 127//355 141//355
f 139//356 125//356 140//356
f 138//357 123//357 139//357
f 138//358 137//358 123//358
f 136//359 118//359 137//359
